<svg width="76" height="140" viewBox="0 0 76 140" fill="none" xmlns="http://www.w3.org/2000/svg">
<rect width="76" height="140" rx="10" fill="#0087DD"/>
<path opacity="0.2" d="M49.727 69.9204L45.8758 62.1255H30.1258L26.2746 69.9204C26.1832 70.1054 26.1444 70.3119 26.1625 70.5175C26.1806 70.723 26.2549 70.9196 26.3772 71.0857L38.0008 86.8755L49.6244 71.0857C49.7467 70.9195 49.821 70.7229 49.8391 70.5174C49.8572 70.3119 49.8184 70.1053 49.727 69.9204ZM38.0008 73.3755C37.4446 73.3755 36.9008 73.2105 36.4383 72.9015C35.9758 72.5925 35.6153 72.1532 35.4024 71.6393C35.1895 71.1254 35.1338 70.5599 35.2424 70.0143C35.3509 69.4687 35.6188 68.9676 36.0121 68.5743C36.4054 68.1809 36.9066 67.9131 37.4521 67.8045C37.9977 67.696 38.5632 67.7517 39.0771 67.9646C39.591 68.1774 40.0303 68.5379 40.3393 69.0004C40.6484 69.463 40.8133 70.0067 40.8133 70.563C40.8133 70.9323 40.7406 71.2981 40.5992 71.6393C40.4579 71.9805 40.2507 72.2906 39.9896 72.5517C39.7284 72.8129 39.4184 73.0201 39.0771 73.1614C38.7359 73.3027 38.3702 73.3755 38.0008 73.3755Z" fill="white"/>
<path d="M38.0007 73.3755L38.0007 86.8755" stroke="white" stroke-width="2.5" stroke-linecap="round" stroke-linejoin="round"/>
<path d="M38.0007 73.3755C39.554 73.3755 40.8132 72.1163 40.8132 70.563C40.8132 69.0097 39.554 67.7505 38.0007 67.7505C36.4474 67.7505 35.1882 69.0097 35.1882 70.563C35.1882 72.1163 36.4474 73.3755 38.0007 73.3755Z" stroke="white" stroke-width="2.5" stroke-linecap="round" stroke-linejoin="round"/>
<path d="M30.1257 62.1255V56.5005C30.1257 56.2021 30.2443 55.916 30.4552 55.705C30.6662 55.494 30.9524 55.3755 31.2507 55.3755H44.7507C45.0491 55.3755 45.3352 55.494 45.5462 55.705C45.7572 55.916 45.8757 56.2021 45.8757 56.5005V62.1255" stroke="white" stroke-width="2.5" stroke-linecap="round" stroke-linejoin="round"/>
<path d="M30.1258 62.1255L26.2746 69.9204C26.1832 70.1054 26.1444 70.3119 26.1625 70.5175C26.1806 70.723 26.2549 70.9196 26.3772 71.0857L38.0008 86.8755L49.6244 71.0856C49.7467 70.9195 49.821 70.7229 49.8391 70.5174C49.8572 70.3119 49.8184 70.1054 49.727 69.9204L45.8758 62.1255H30.1258Z" stroke="white" stroke-width="2.5" stroke-linecap="round" stroke-linejoin="round"/>
</svg>
