<svg width="299" height="74" viewBox="0 0 299 74" fill="none" xmlns="http://www.w3.org/2000/svg">
<g clip-path="url(#clip0_2678_7023)">
<path d="M36.8105 62.84C38.0305 64.2 39.2005 65.2 40.3205 65.85C41.4905 66.52 42.6305 66.85 43.7505 66.85C44.8005 66.85 45.6705 66.56 46.3605 65.99C47.0505 65.42 47.4005 64.69 47.4005 63.81C47.4005 62.85 47.1105 62.1 46.5405 61.55C45.9305 61.03 44.5805 60.49 42.4905 59.93C39.6505 59.16 37.6305 58.16 36.4505 56.94C35.2505 55.69 34.6605 53.98 34.6605 51.83C34.6605 49.03 35.6005 46.76 37.4705 45C39.3205 43.23 41.7405 42.34 44.7305 42.34C46.4205 42.34 47.9505 42.56 49.3205 43C50.7605 43.44 52.1305 44.09 53.4205 44.96L50.9205 50.69C50.0405 49.93 49.1105 49.35 48.1305 48.93C47.1705 48.54 46.2405 48.35 45.3205 48.35C44.4005 48.35 43.6105 48.58 42.9905 49.05C42.3905 49.49 42.0905 50.08 42.0905 50.81C42.0905 51.54 42.3505 52.1 42.8705 52.57C43.4205 53.01 44.4405 53.43 45.9405 53.83C45.9905 53.84 46.0405 53.85 46.0805 53.86C46.1205 53.86 46.1805 53.88 46.2605 53.91C49.5105 54.78 51.6505 55.75 52.6905 56.83C53.3705 57.51 53.9005 58.37 54.2905 59.41C54.6405 60.4 54.8105 61.51 54.8105 62.76C54.8105 65.85 53.7905 68.34 51.7605 70.25C49.7105 72.13 46.9905 73.07 43.6105 73.07C41.5305 73.07 39.6805 72.73 38.0505 72.05C36.4205 71.37 34.8105 70.28 33.2305 68.78L36.8205 62.85L36.8105 62.84Z" fill="#0083C4"/>
<path d="M78.8197 44.19V52.9C77.6797 51.66 76.5997 50.76 75.5897 50.2C74.4597 49.65 73.2897 49.38 72.0797 49.38C69.7997 49.38 67.9497 50.16 66.5097 51.72C66.0197 52.28 65.6197 52.86 65.3097 53.47C64.9997 54.08 64.7697 54.76 64.6197 55.53C64.4697 56.3 64.3897 57.07 64.3897 57.86C64.3897 60.2 65.1097 62.15 66.5497 63.71C67.9997 65.24 69.8397 66.01 72.0797 66.01C73.2797 66.01 74.4497 65.72 75.5897 65.15C76.5997 64.63 77.6797 63.74 78.8197 62.47V71.2C77.3397 71.89 76.0897 72.35 75.0497 72.58C73.7597 72.89 72.4997 73.04 71.2597 73.04C69.6897 73.04 68.2097 72.85 66.8297 72.47C65.4497 72.09 64.2097 71.52 63.1197 70.74C60.9397 69.25 59.2797 67.41 58.1397 65.23C56.9997 62.97 56.4297 60.46 56.4297 57.7C56.4297 55.49 56.7997 53.46 57.5497 51.61C57.8797 50.72 58.2997 49.88 58.8197 49.08C59.3297 48.29 59.9897 47.47 60.8097 46.61C62.2097 45.17 63.7797 44.11 65.5197 43.42C67.2497 42.71 69.1697 42.36 71.2897 42.36C72.4997 42.36 73.7597 42.51 75.0797 42.8C76.3797 43.15 77.6397 43.61 78.8497 44.2L78.8197 44.19Z" fill="#0083C4"/>
<path d="M81.6797 72.2799V43.0499H89.6497V54.4099H100.29V43.0499H108.26V72.2799H100.29V60.3799H89.6497V72.2799H81.6797Z" fill="#0083C4"/>
<path d="M142.83 57.73C142.83 59.85 142.45 61.82 141.69 63.66C140.93 65.46 139.8 67.09 138.3 68.57C136.81 70.01 135.11 71.11 133.19 71.88C131.18 72.67 129.19 73.06 127.22 73.06C125.25 73.06 123.24 72.67 121.25 71.88C119.29 71.09 117.61 69.99 116.18 68.57C114.74 67.2 113.61 65.55 112.79 63.62C111.99 61.73 111.59 59.77 111.59 57.73C111.59 55.69 111.99 53.73 112.79 51.84C113.61 49.91 114.75 48.26 116.18 46.89C117.64 45.43 119.33 44.31 121.25 43.54C123.11 42.78 125.1 42.4 127.22 42.4C129.34 42.4 131.34 42.78 133.23 43.55C135.12 44.32 136.81 45.43 138.29 46.89C139.77 48.35 140.91 50 141.69 51.84C142.45 53.68 142.83 55.64 142.83 57.73ZM127.22 66.32C129.42 66.32 131.25 65.5 132.73 63.86C133.46 63.05 134 62.14 134.35 61.12C134.7 60.11 134.87 58.98 134.87 57.73C134.87 55.29 134.14 53.25 132.69 51.6C131.21 49.96 129.39 49.14 127.22 49.14C125.05 49.14 123.17 49.96 121.73 51.6C120.29 53.24 119.57 55.28 119.57 57.73C119.57 60.18 120.28 62.33 121.69 63.9C123.14 65.51 124.98 66.32 127.22 66.32Z" fill="#0083C4"/>
<path d="M176.201 57.73C176.201 59.85 175.821 61.82 175.061 63.66C174.301 65.46 173.171 67.09 171.671 68.57C170.181 70.01 168.481 71.11 166.561 71.88C164.551 72.67 162.561 73.06 160.591 73.06C158.621 73.06 156.611 72.67 154.621 71.88C152.661 71.09 150.981 69.99 149.551 68.57C148.111 67.2 146.981 65.55 146.161 63.62C145.361 61.73 144.961 59.77 144.961 57.73C144.961 55.69 145.361 53.73 146.161 51.84C146.981 49.91 148.121 48.26 149.551 46.89C151.011 45.43 152.701 44.31 154.621 43.54C156.481 42.78 158.471 42.4 160.591 42.4C162.711 42.4 164.711 42.78 166.601 43.55C168.491 44.32 170.181 45.43 171.661 46.89C173.141 48.35 174.281 50 175.061 51.84C175.821 53.68 176.201 55.64 176.201 57.73ZM160.591 66.32C162.791 66.32 164.621 65.5 166.101 63.86C166.831 63.05 167.371 62.14 167.721 61.12C168.071 60.11 168.241 58.98 168.241 57.73C168.241 55.29 167.511 53.25 166.061 51.6C164.581 49.96 162.761 49.14 160.591 49.14C158.421 49.14 156.541 49.96 155.101 51.6C153.661 53.24 152.941 55.28 152.941 57.73C152.941 60.18 153.651 62.33 155.061 63.9C156.511 65.51 158.351 66.32 160.591 66.32Z" fill="#0083C4"/>
<path d="M179.551 72.2799V43.0499H187.521V65.4499H197.421V72.2799H179.551Z" fill="#0083C4"/>
<path d="M208.051 72.2799L195.791 43.0499H204.261L210.111 59.3999C210.201 59.7599 210.311 60.1699 210.431 60.6199C210.591 61.3099 210.811 62.2099 211.091 63.3199C211.261 62.5199 211.471 61.7199 211.711 60.9199C211.881 60.1299 212.021 59.6299 212.111 59.3999L217.921 43.0499H226.391L214.131 72.2799H208.061H208.051Z" fill="#0083C4"/>
<path d="M227.32 72.2799V43.0499H235.37V72.2799H227.32Z" fill="#0083C4"/>
<path d="M240.16 72.2799V43.0499H248.13V65.4499H258.03V72.2799H240.16Z" fill="#0083C4"/>
<path d="M260.281 72.2799V43.0499H268.251V65.4499H278.151V72.2799H260.281Z" fill="#0083C4"/>
<path d="M280.41 72.2799V43.0499H298.32V49.4799H288.18V54.5299H297.74V60.8199H288.18V65.7299H298.32V72.2799H280.41Z" fill="#0083C4"/>
<path d="M42.2408 34.1199C42.2408 34.1199 18.7008 52.24 33.2108 72.29C33.2108 72.29 -1.41916 56.91 14.2308 15.45C14.2308 15.45 16.7008 30.28 23.5708 32.47C23.5708 32.47 12.8608 48.15 20.2808 49.77C24.6708 50.7299 22.7508 46.4799 24.9508 36.8699C27.1508 27.2599 24.9508 36.8699 42.2508 34.1199H42.2408Z" fill="#ED3237"/>
<path d="M13.14 15.4399C13.14 15.4399 -3.47 47.2899 28.79 72.2799C28.79 72.2799 -0.31 61.7099 4.49 28.8999L0 28.7599C0 28.7599 9.71 19.8399 13.14 15.4399Z" fill="#0583C3"/>
<path d="M21.0497 12.52L17.2597 11.03L14.1597 13.68L14.4097 9.60999L10.9297 7.47999L14.8797 6.44999L15.8297 2.48999L18.0197 5.92999L22.0897 5.59999L19.4897 8.74999L21.0497 12.52Z" fill="#ED3237"/>
<path d="M27.2404 7.59995L24.6704 6.58995L22.5804 8.37995L22.7504 5.62995L20.4004 4.18995L23.0704 3.49995L23.7104 0.819946L25.1904 3.14995L27.9304 2.92995L26.1804 5.04995L27.2404 7.59995Z" fill="#ED3237"/>
<path d="M30.8998 3.77L29.4698 3.21L28.2998 4.21L28.3998 2.68L27.0898 1.88L28.5698 1.49L28.9298 0L29.7498 1.29L31.2798 1.17L30.3098 2.36L30.8998 3.77Z" fill="#ED3237"/>
<path d="M41.0092 27.1799H35.5892L35.2492 26.9199C34.4592 29.1899 32.2992 30.8199 29.7592 30.8199C26.5492 30.8199 23.9492 28.2199 23.9492 25.0099C23.9492 22.9699 24.9992 21.1799 26.5792 20.1499L24.3392 14.0699L36.4892 17.2299L41.0192 27.1799H41.0092Z" fill="#0083C4"/>
</g>
<defs>
<clipPath id="clip0_2678_7023">
<rect width="298.32" height="73.06" fill="white"/>
</clipPath>
</defs>
</svg>
